<svg xmlns="http://www.w3.org/2000/svg" width="64" height="15" viewBox="0 0 16.933333 3.96875" version="1.1" id="svg8" style="fill:#222">
   <g id="layer1" transform="translate(0,-293.03125)">
      <g id="g999">
         <path id="path819" d="m 0.45675626,293.04306 16.17353074,-0.0118 c 0.373831,0.47849 -0.348398,1.34624 -1.132929,1.82474 0.291685,-0.39875 0.788615,-0.79749 0.377642,-1.19624 H 0.01401805 Z"/>
         <path id="path821" d="m 1.3408349,293.4205 v 3.58873 l 0.7064644,-0.25634 v -3.33239 z"/>
         <path d="m 10.26608,296.56025 v -2.68669 h 0.597955 l 1.40478,1.843 v -1.843 h 0.638909 v 2.68669 l -0.638909,0.17611 -1.363824,-1.79386 v 1.79386 z" id="path925"/>
         <path d="m 14.181122,296.74377 c -0.264584,0 -0.389866,-0.008 -0.777661,-0.18352 -0.150171,-0.0765 -0.28669,-0.17475 -0.409557,-0.29488 l 0.380888,-0.4669 c 0.308533,0.27031 0.593857,0.40546 0.855974,0.40546 0.117406,0 0.208874,-0.0246 0.274403,-0.0737 0.06826,-0.0519 0.102389,-0.12012 0.102389,-0.20477 0,-0.0874 -0.0355,-0.15563 -0.106485,-0.20478 -0.07099,-0.0519 -0.211604,-0.10374 -0.421843,-0.15563 -0.333107,-0.0792 -0.577476,-0.18157 -0.733107,-0.30717 -0.152901,-0.12833 -0.229352,-0.32764 -0.229352,-0.59795 0,-0.27304 0.09693,-0.48328 0.290786,-0.63072 0.196587,-0.14744 0.440955,-0.22116 0.733106,-0.22116 0.191127,0 0.382253,0.0328 0.573379,0.0983 0.191127,0.0655 0.35768,0.15837 0.49966,0.2785 l -0.32355,0.4669 c -0.248465,-0.1884 -0.50512,-0.2826 -0.769967,-0.2826 -0.106485,0 -0.191126,0.0259 -0.253925,0.0778 -0.06007,0.0491 -0.0901,0.11603 -0.0901,0.20068 0,0.0819 0.03686,0.14744 0.11058,0.19659 0.07645,0.0491 0.24983,0.10784 0.520137,0.17611 0.273038,0.0655 0.484642,0.16519 0.634813,0.29897 0.150171,0.13379 0.225256,0.31946 0.225256,0.557 0,0.29488 -0.11058,0.52287 -0.331741,0.68396 -0.350199,0.17516 -0.4895,0.18351 -0.754083,0.18351 z" id="path927"/>
         <g transform="matrix(0.08267763,0,0,0.08267763,1.9418462,272.30544)" id="text937" aria-label="A">
            <path id="path939" d="m 32.313033,295.41251 -3.302,-7.6708 h -14.8844 l -3.302,7.6708 -7.5183998,-2.1844 14.4271998,-33.3248 h 7.6708 l 14.3764,33.3248 z m -10.7188,-24.9428 -4.4704,10.3124 h 8.89 z"/>
         </g>
         <g transform="matrix(0.08809705,0,0,0.08809705,6.5954044,272.63802)" id="text944" aria-label="L">
            <path id="path946" d="m -14.152034,273.64894 v -33.3248 h 7.9247998 v 28.448 H 8.9111656 v 4.8768 z"/>
         </g>
         <g id="g986">
            <path id="path827" d="m -7.0966399,295.3345 a 1.4825695,1.4354924 0 0 1 -1.3252096,1.42739 1.4825695,1.4354924 0 0 1 -1.6065245,-1.12438 1.4825695,1.4354924 0 0 1 0.9841762,-1.66607" transform="scale(-1,1)"/>
            <path style="fill:#ffb200;fill-opacity:1;stroke:none;stroke-width:.29470947px;stroke-linecap:butt;stroke-linejoin:miter;stroke-opacity:1" d="m 7.0996128,295.32425 0.7514406,0.55125 c -0.2120846,-0.28802 -0.3454171,-0.58204 -0.2704038,-0.89186 0.4481584,-0.10346 0.9999515,0.55399 1.502881,1.10249 -0.3015945,-0.55194 -0.5744081,-1.11401 -0.5408073,-1.78373 0.4464801,0.004 0.5916711,0.28459 0.7514402,0.55125 l -0.2704039,-0.89186 z" id="path982"/>
         </g>
      </g>
   </g>
</svg>
