<?xml version="1.0" standalone="no"?>
<!DOCTYPE svg PUBLIC "-//W3C//DTD SVG 20010904//EN"
 "http://www.w3.org/TR/2001/REC-SVG-20010904/DTD/svg10.dtd">
<svg version="1.0" xmlns="http://www.w3.org/2000/svg"
 width="700.000000pt" height="700.000000pt" viewBox="0 0 700.000000 700.000000"
 preserveAspectRatio="xMidYMid meet">
<metadata>
Created by potrace 1.11, written by Peter Selinger 2001-2013
</metadata>
<g transform="translate(0.000000,700.000000) scale(0.100000,-0.100000)"
fill="#000000" stroke="none">
<path d="M2785 6993 c-311 -71 -539 -151 -810 -283 -764 -374 -1369 -1014
-1698 -1795 -128 -304 -209 -612 -253 -960 -22 -168 -25 -622 -6 -780 102
-842 437 -1541 1011 -2116 298 -297 554 -483 922 -668 505 -254 1001 -371
1572 -371 793 0 1510 241 2142 720 664 503 1124 1224 1309 2053 l27 118 -4
662 -3 662 -37 142 c-133 516 -356 970 -673 1368 -108 136 -416 445 -544 546
-421 333 -887 563 -1377 680 l-122 29 -718 -1 c-395 -1 -727 -3 -738 -6z
m3202 -1215 c32 -36 82 -141 98 -210 19 -81 19 -237 0 -328 -96 -457 -543
-1030 -1170 -1499 -124 -93 -226 -164 -325 -226 l-45 -28 29 39 c17 21 104
130 195 242 306 375 397 524 438 715 34 163 -15 327 -139 463 l-50 54 -694 0
-694 0 0 -2099 c0 -1670 -3 -2100 -12 -2104 -7 -2 -202 -73 -433 -157 -231
-84 -426 -155 -432 -157 -10 -4 -13 451 -13 2256 l0 2261 -961 2 -961 3 294
341 c161 187 311 362 333 388 l40 47 2155 8 c1185 4 2194 8 2241 9 77 2 88 0
106 -20z"/>
</g>
</svg>
